<svg width="49" height="40" viewBox="0 0 49 40" fill="none" xmlns="http://www.w3.org/2000/svg">
<path d="M46.875 23.6317C47.9274 23.6317 48.7805 22.7157 48.7805 21.5857V8.18414C48.7805 3.67141 45.3613 0 41.1585 0H7.62195C3.41921 0 0 3.67141 0 8.18414V31.8159C0 36.3286 3.41921 40 7.62195 40H41.1585C45.3613 40 48.7805 36.3286 48.7805 31.8159C48.7805 30.6858 47.9274 29.7698 46.875 29.7698C45.8226 29.7698 44.9695 30.6858 44.9695 31.8159C44.9695 34.0722 43.2599 35.9079 41.1585 35.9079H7.62195C5.52058 35.9079 3.81098 34.0722 3.81098 31.8159V8.6177L20.3654 19.6709C21.6067 20.4996 22.9985 20.9141 24.3902 20.9141C25.782 20.9141 27.1738 20.4996 28.4151 19.6709L44.9695 8.6177V21.5857C44.9695 22.7157 45.8226 23.6317 46.875 23.6317ZM26.4026 16.1958C25.1614 17.0246 23.6191 17.0247 22.3779 16.1958L5.40101 4.86056C6.02677 4.37708 6.79392 4.09207 7.62195 4.09207H41.1585C41.9866 4.09207 42.7537 4.37719 43.3795 4.86066L26.4026 16.1958Z" fill="white"/>
</svg>
