<svg width="40" height="40" viewBox="0 0 40 40" fill="none" xmlns="http://www.w3.org/2000/svg">
<path d="M39.9961 32.2307C39.9403 30.6835 39.2957 29.2396 38.1813 28.1649C35.9992 26.0608 34.1709 24.8461 32.4276 24.3423C30.0257 23.6481 27.8007 24.2794 25.815 26.2186C25.8121 26.2215 25.8091 26.2245 25.8061 26.2274L23.6936 28.3242C22.3734 27.5799 19.8062 25.9459 17.0326 23.1723L16.827 22.9668C14.0529 20.1928 12.419 17.6251 11.6754 16.3064L13.7723 14.1938C13.7753 14.1908 13.7783 14.1878 13.7812 14.1848C15.7204 12.1993 16.3516 9.97446 15.6575 7.57219C15.1536 5.82897 13.939 4.00068 11.8348 1.81856C10.7603 0.704261 9.31646 0.0597266 7.7692 0.00394504C6.221 -0.0519146 4.73537 0.486994 3.58318 1.52122L3.53834 1.56153C3.51756 1.5802 3.49725 1.5995 3.4774 1.61927C1.18373 3.91295 -0.0186103 7.12398 0.00021778 10.9053C0.0323271 17.329 3.56272 24.6749 9.44388 30.556C10.5529 31.665 11.8133 32.7625 13.19 33.8182C13.8747 34.3432 14.8555 34.2138 15.3806 33.529C15.9058 32.8441 15.7762 31.8633 15.0914 31.3382C13.823 30.3657 12.6664 29.3591 11.6536 28.3465C6.34139 23.0343 3.15318 16.5085 3.12514 10.8898C3.11068 7.97758 3.9867 5.54686 5.65881 3.85732L5.67076 3.84654C6.80646 2.82708 8.52592 2.88912 9.58545 3.98779C13.6307 8.18297 13.3378 10.1635 11.5503 11.9965L8.65388 14.9146C8.19967 15.3723 8.07318 16.062 8.33545 16.6511C8.40896 16.8162 10.1878 20.7469 14.6179 25.177L14.8236 25.3824C19.2531 29.8121 23.1839 31.5908 23.349 31.6643C23.9379 31.9268 24.6278 31.8002 25.0854 31.346L28.0036 28.4495C29.8368 26.6619 31.8173 26.3692 36.0122 30.4144C37.1109 31.4738 37.1729 33.1933 36.1537 34.3289L36.1426 34.3411C34.4669 35.9997 32.0621 36.875 29.1816 36.875C29.1579 36.875 29.1341 36.875 29.1103 36.8748C26.8079 36.8633 24.1417 36.2322 21.4002 35.0497C20.608 34.7078 19.6884 35.0731 19.3467 35.8655C19.0049 36.658 19.3701 37.5773 20.1625 37.9191C23.3315 39.286 26.3366 39.986 29.0947 39.9998C29.124 39.9999 29.1531 40 29.1824 40C32.9257 40 36.1048 38.7985 38.3807 36.5226C38.4005 36.5028 38.4197 36.4826 38.4384 36.4617L38.4789 36.4166C39.5131 35.2645 40.0519 33.7779 39.9961 32.2307Z" fill="white"/>
</svg>
