<svg width="41" height="40" viewBox="0 0 41 40" fill="none" xmlns="http://www.w3.org/2000/svg">
<path d="M20.1592 40H20.1512C17.0056 39.9988 13.8867 39.2562 11.0918 37.8474L2.47626 39.8071C1.95055 39.9265 1.39993 39.7687 1.01726 39.3888C0.634598 39.0089 0.473103 38.4595 0.588765 37.9329L2.45565 29.4471C0.851771 26.4852 0.00492175 23.2411 0.00030761 20.0245C0 20.0134 0 20.0023 0 19.9915C0.00215327 14.661 2.1102 9.64079 5.93533 5.85596C9.75184 2.07975 14.8031 0 20.1589 0C25.5267 0.00215327 30.5699 2.08375 34.3612 5.86088C38.2051 9.69062 40.3208 14.7148 40.319 20.0075C40.3175 24.0074 39.1181 27.8731 36.8507 31.1864C36.3594 31.9043 35.3794 32.088 34.6614 31.5967C33.9438 31.1055 33.7598 30.1254 34.2511 29.4075C36.1586 26.6199 37.1675 23.3691 37.1691 20.0063C37.1706 15.5574 35.384 11.3262 32.1381 8.09228C28.9411 4.90699 24.6866 3.15177 20.1583 3.14992C10.7937 3.14992 3.16961 10.6894 3.14992 19.9632C3.14992 19.9734 3.15023 19.9832 3.15023 19.9931C3.149 22.8637 3.95647 25.7743 5.48498 28.4102C5.68278 28.7513 5.74553 29.154 5.66063 29.5388L4.19856 36.1847L10.9583 34.647C11.3314 34.5624 11.7227 34.6162 12.0592 34.7986C14.529 36.1395 17.3273 36.8489 20.1518 36.8501H20.1589C23.2304 36.8501 26.2468 36.0195 28.8818 34.4486C29.6286 34.0028 30.5955 34.2474 31.0409 34.9946C31.4863 35.7418 31.2421 36.7083 30.4949 37.154C27.3723 39.0157 23.7982 40 20.1589 40H20.1592ZM15.7112 11.9869C15.3657 11.2216 15.0021 11.1954 14.6736 11.1822H13.7898C13.4822 11.1822 12.9827 11.2973 12.5603 11.7571C12.1377 12.217 10.9463 13.3287 10.9463 15.59C10.9463 17.8512 12.5988 20.0365 12.8292 20.3434C13.0599 20.6498 16.0194 25.4384 20.7061 27.2807C24.6014 28.8116 25.3941 28.5071 26.2394 28.4302C27.085 28.3539 28.9679 27.3188 29.3518 26.2456C29.7363 25.1726 29.7363 24.2529 29.6209 24.0606C29.5059 23.8693 29.1983 23.7542 28.7372 23.5244C28.2758 23.2947 26.0158 22.1636 25.5931 22.0104C25.1705 21.8572 24.8632 21.7806 24.5555 22.2408C24.2479 22.7003 23.3423 23.7631 23.0732 24.0695C22.8043 24.3768 22.5352 24.415 22.0741 24.1852C21.613 23.9545 20.1429 23.4608 18.3812 21.8953C17.0102 20.6769 16.0591 19.1235 15.7899 18.6633C15.5207 18.2037 15.761 17.9546 15.9923 17.7254C16.1993 17.5196 16.4796 17.2381 16.7103 16.9699C16.9404 16.7017 17.0062 16.51 17.1597 16.2033C17.3135 15.8966 17.2366 15.6284 17.1215 15.3983C17.0062 15.1685 16.1209 12.8956 15.7108 11.9869" fill="white"/>
</svg>
